<svg xmlns="http://www.w3.org/2000/svg" xmlns:xlink="http://www.w3.org/1999/xlink">
  <defs>
	<symbol viewBox="0 0 256 256" id="spotify">
		<path d="M128,24A104,104,0,1,0,232,128,104.11,104.11,0,0,0,128,24Zm0,192a88,88,0,1,1,88-88A88.1,88.1,0,0,1,128,216Zm31.07-46.26a8,8,0,0,1-10.81,3.33,42.79,42.79,0,0,0-40.52,0,8,8,0,0,1-7.48-14.14,59.33,59.33,0,0,1,55.48,0A8,8,0,0,1,159.07,169.74Zm32-56a8,8,0,0,1-10.83,3.29,110.62,110.62,0,0,0-104.46,0,8,8,0,0,1-7.54-14.12,126.67,126.67,0,0,1,119.54,0A8,8,0,0,1,191.06,113.76Zm-16,28a8,8,0,0,1-10.82,3.3,77,77,0,0,0-72.48,0,8,8,0,0,1-7.52-14.12,93,93,0,0,1,87.52,0A8,8,0,0,1,175.06,141.76Z"></path>
	</symbol>
	<symbol viewBox="0 0 256 256" id="linkedin">
		<path d="M216,24H40A16,16,0,0,0,24,40V216a16,16,0,0,0,16,16H216a16,16,0,0,0,16-16V40A16,16,0,0,0,216,24Zm0,192H40V40H216V216ZM96,112v64a8,8,0,0,1-16,0V112a8,8,0,0,1,16,0Zm88,28v36a8,8,0,0,1-16,0V140a20,20,0,0,0-40,0v36a8,8,0,0,1-16,0V112a8,8,0,0,1,15.79-1.78A36,36,0,0,1,184,140ZM100,84A12,12,0,1,1,88,72,12,12,0,0,1,100,84Z"></path>
	</symbol>
	<symbol viewBox="0 0 256 256" id="instagram">
		<path d="M128,80a48,48,0,1,0,48,48A48.05,48.05,0,0,0,128,80Zm0,80a32,32,0,1,1,32-32A32,32,0,0,1,128,160ZM176,24H80A56.06,56.06,0,0,0,24,80v96a56.06,56.06,0,0,0,56,56h96a56.06,56.06,0,0,0,56-56V80A56.06,56.06,0,0,0,176,24Zm40,152a40,40,0,0,1-40,40H80a40,40,0,0,1-40-40V80A40,40,0,0,1,80,40h96a40,40,0,0,1,40,40ZM192,76a12,12,0,1,1-12-12A12,12,0,0,1,192,76Z"></path>
	</symbol>
	<symbol viewBox="0 0 256 256" id="github">
		<path d="M208.31,75.68A59.78,59.78,0,0,0,202.93,28,8,8,0,0,0,196,24a59.75,59.75,0,0,0-48,24H124A59.75,59.75,0,0,0,76,24a8,8,0,0,0-6.93,4,59.78,59.78,0,0,0-5.38,47.68A58.14,58.14,0,0,0,56,104v8a56.06,56.06,0,0,0,48.44,55.47A39.8,39.8,0,0,0,96,192v8H72a24,24,0,0,1-24-24A40,40,0,0,0,8,136a8,8,0,0,0,0,16,24,24,0,0,1,24,24,40,40,0,0,0,40,40H96v16a8,8,0,0,0,16,0V192a24,24,0,0,1,48,0v40a8,8,0,0,0,16,0V192a39.8,39.8,0,0,0-8.44-24.53A56.06,56.06,0,0,0,216,112v-8A58.14,58.14,0,0,0,208.31,75.68ZM200,112a40,40,0,0,1-40,40H112a40,40,0,0,1-40-40v-8a41.74,41.74,0,0,1,6.9-22.48A8,8,0,0,0,80,73.83a43.81,43.81,0,0,1,.79-33.58,43.88,43.88,0,0,1,32.32,20.06A8,8,0,0,0,119.82,64h32.35a8,8,0,0,0,6.74-3.69,43.87,43.87,0,0,1,32.32-20.06A43.81,43.81,0,0,1,192,73.83a8.09,8.09,0,0,0,1,7.65A41.72,41.72,0,0,1,200,104Z"></path>
	</symbol>
	<symbol viewBox="0 0 256 256" id="circle-notch">
		<path d="M232,128a104,104,0,0,1-208,0c0-41,23.81-78.36,60.66-95.27a8,8,0,0,1,6.68,14.54C60.15,61.59,40,93.27,40,128a88,88,0,0,0,176,0c0-34.73-20.15-66.41-51.34-80.73a8,8,0,0,1,6.68-14.54C208.19,49.64,232,87,232,128Z"></path>
	</symbol>
	<symbol viewBox="0 0 256 256" id="cassette-tape">
		<path d="M224,48H32A16,16,0,0,0,16,64V192a16,16,0,0,0,16,16H224a16,16,0,0,0,16-16V64A16,16,0,0,0,224,48ZM80,192l12-16h72l12,16Zm144,0H196l-21.6-28.8A8,8,0,0,0,168,160H88a8,8,0,0,0-6.4,3.2L60,192H32V64H224V192ZM176,80H80a32,32,0,0,0,0,64h96a32,32,0,0,0,0-64ZM148.3,96a31.92,31.92,0,0,0,0,32H107.7a31.92,31.92,0,0,0,0-32ZM64,112a16,16,0,1,1,16,16A16,16,0,0,1,64,112Zm112,16a16,16,0,1,1,16-16A16,16,0,0,1,176,128Z"></path>
	</symbol>
	<symbol viewBox="0 0 256 256" id="play">
		<path d="M232.4,114.49,88.32,26.35a16,16,0,0,0-16.2-.3A15.86,15.86,0,0,0,64,39.87V216.13A15.94,15.94,0,0,0,80,232a16.07,16.07,0,0,0,8.36-2.35L232.4,141.51a15.81,15.81,0,0,0,0-27ZM80,215.94V40l143.83,88Z"></path>
	</symbol>
	<symbol viewBox="0 0 256 256" id="pause">
		<path d="M200,32H160a16,16,0,0,0-16,16V208a16,16,0,0,0,16,16h40a16,16,0,0,0,16-16V48A16,16,0,0,0,200,32Zm0,176H160V48h40ZM96,32H56A16,16,0,0,0,40,48V208a16,16,0,0,0,16,16H96a16,16,0,0,0,16-16V48A16,16,0,0,0,96,32Zm0,176H56V48H96Z"></path>
	</symbol>
	<symbol viewBox="0 0 256 256" id="repeat">
		<path d="M24,128A72.08,72.08,0,0,1,96,56H204.69L194.34,45.66a8,8,0,0,1,11.32-11.32l24,24a8,8,0,0,1,0,11.32l-24,24a8,8,0,0,1-11.32-11.32L204.69,72H96a56.06,56.06,0,0,0-56,56,8,8,0,0,1-16,0Zm200-8a8,8,0,0,0-8,8,56.06,56.06,0,0,1-56,56H51.31l10.35-10.34a8,8,0,0,0-11.32-11.32l-24,24a8,8,0,0,0,0,11.32l24,24a8,8,0,0,0,11.32-11.32L51.31,200H160a72.08,72.08,0,0,0,72-72A8,8,0,0,0,224,120Z"></path>
	</symbol>
	<symbol viewBox="0 0 256 256" id="repeat-once">
		<path d="M24,128A72.08,72.08,0,0,1,96,56H204.69L194.34,45.66a8,8,0,0,1,11.32-11.32l24,24a8,8,0,0,1,0,11.32l-24,24a8,8,0,0,1-11.32-11.32L204.69,72H96a56.06,56.06,0,0,0-56,56,8,8,0,0,1-16,0Zm200-8a8,8,0,0,0-8,8,56.06,56.06,0,0,1-56,56H51.31l10.35-10.34a8,8,0,0,0-11.32-11.32l-24,24a8,8,0,0,0,0,11.32l24,24a8,8,0,0,0,11.32-11.32L51.31,200H160a72.08,72.08,0,0,0,72-72A8,8,0,0,0,224,120Zm-88,40a8,8,0,0,0,8-8V104a8,8,0,0,0-11.58-7.16l-16,8a8,8,0,1,0,7.16,14.31l4.42-2.21V152A8,8,0,0,0,136,160Z"></path>
	</symbol>
	<symbol viewBox="0 0 256 256" id="shuffle">
		<path d="M216,48V88a8,8,0,0,1-16,0V67.31L156.28,111A8,8,0,0,1,145,99.72L188.69,56H168a8,8,0,0,1,0-16h40A8,8,0,0,1,216,48Zm-8,112a8,8,0,0,0-8,8v20.69L53.66,42.34A8,8,0,0,0,42.34,53.66L188.69,200H168a8,8,0,0,0,0,16h40a8,8,0,0,0,8-8V168A8,8,0,0,0,208,160ZM99.72,145,42.34,202.34a8,8,0,0,0,11.32,11.32L111,156.28A8,8,0,0,0,99.72,145Z"></path>
	</symbol>
	<symbol viewBox="0 0 256 256" id="vinyl-record">
		<path d="M128,24A104,104,0,1,0,232,128,104.11,104.11,0,0,0,128,24Zm0,192a88,88,0,1,1,88-88A88.1,88.1,0,0,1,128,216Zm0-144a56.06,56.06,0,0,0-56,56,8,8,0,0,1-16,0,72.08,72.08,0,0,1,72-72,8,8,0,0,1,0,16Zm72,56a72.08,72.08,0,0,1-72,72,8,8,0,0,1,0-16,56.06,56.06,0,0,0,56-56,8,8,0,0,1,16,0Zm-40,0a32,32,0,1,0-32,32A32,32,0,0,0,160,128Zm-48,0a16,16,0,1,1,16,16A16,16,0,0,1,112,128Z"></path>
	</symbol>
	<symbol viewBox="0 0 256 256" id="music-quaver">
		<path d="M210.3,56.34l-80-24A8,8,0,0,0,120,40V148.26A48,48,0,1,0,136,184V98.75l69.7,20.91A8,8,0,0,0,216,112V64A8,8,0,0,0,210.3,56.34ZM88,216a32,32,0,1,1,32-32A32,32,0,0,1,88,216ZM200,101.25l-64-19.2V50.75L200,70Z"></path>
	</symbol>
	<symbol viewBox="0 0 256 256" id="caret-up">
		<path d="M213.66,165.66a8,8,0,0,1-11.32,0L128,91.31,53.66,165.66a8,8,0,0,1-11.32-11.32l80-80a8,8,0,0,1,11.32,0l80,80A8,8,0,0,1,213.66,165.66Z"></path>
	</symbol>
	<symbol viewBox="0 0 256 256" id="caret-down">
		<path d="M213.66,101.66l-80,80a8,8,0,0,1-11.32,0l-80-80A8,8,0,0,1,53.66,90.34L128,164.69l74.34-74.35a8,8,0,0,1,11.32,11.32Z"></path>
	</symbol>
	<symbol viewBox="0 0 256 256" id="caret-left">
		<path d="M165.66,202.34a8,8,0,0,1-11.32,11.32l-80-80a8,8,0,0,1,0-11.32l80-80a8,8,0,0,1,11.32,11.32L91.31,128Z"></path>
	</symbol>
	<symbol viewBox="0 0 256 256" id="caret-right">
		<path d="M181.66,133.66l-80,80a8,8,0,0,1-11.32-11.32L164.69,128,90.34,53.66a8,8,0,0,1,11.32-11.32l80,80A8,8,0,0,1,181.66,133.66Z"></path>
	</symbol>
	<symbol viewBox="0 0 256 256" id="magnifying-glass">
		<path d="M229.66,218.34l-50.07-50.06a88.11,88.11,0,1,0-11.31,11.31l50.06,50.07a8,8,0,0,0,11.32-11.32ZM40,112a72,72,0,1,1,72,72A72.08,72.08,0,0,1,40,112Z"></path>
	</symbol>
	<symbol viewBox="0 0 256 256" id="sliders-horizontal">
		<path d="M40,88H73a32,32,0,0,0,62,0h81a8,8,0,0,0,0-16H135a32,32,0,0,0-62,0H40a8,8,0,0,0,0,16Zm64-24A16,16,0,1,1,88,80,16,16,0,0,1,104,64ZM216,168H199a32,32,0,0,0-62,0H40a8,8,0,0,0,0,16h97a32,32,0,0,0,62,0h17a8,8,0,0,0,0-16Zm-48,24a16,16,0,1,1,16-16A16,16,0,0,1,168,192Z"></path>
	</symbol>
	<symbol viewBox="0 0 256 256" id="disc">
		<path d="M128,24A104,104,0,1,0,232,128,104.11,104.11,0,0,0,128,24Zm39.2,96a39.77,39.77,0,0,0-5.84-14l34.23-34.24a87.54,87.54,0,0,1,20,48.28ZM152,128a24,24,0,1,1-24-24A24,24,0,0,1,152,128Zm-24,88A88,88,0,1,1,184.28,60.4L150,94.64A40,40,0,1,0,167.2,136h48.43A88.11,88.11,0,0,1,128,216Z"></path>
	</symbol>
	<symbol viewBox="0 0 256 256" id="dice-three">
		<path d="M192,32H64A32,32,0,0,0,32,64V192a32,32,0,0,0,32,32H192a32,32,0,0,0,32-32V64A32,32,0,0,0,192,32Zm16,160a16,16,0,0,1-16,16H64a16,16,0,0,1-16-16V64A16,16,0,0,1,64,48H192a16,16,0,0,1,16,16ZM104,92A12,12,0,1,1,92,80,12,12,0,0,1,104,92Zm36,36a12,12,0,1,1-12-12A12,12,0,0,1,140,128Zm36,36a12,12,0,1,1-12-12A12,12,0,0,1,176,164Z"></path>
	</symbol>
	<symbol viewBox="0 0 256 256" id="user">
		<path d="M230.92,212c-15.23-26.33-38.7-45.21-66.09-54.16a72,72,0,1,0-73.66,0C63.78,166.78,40.31,185.66,25.08,212a8,8,0,1,0,13.85,8c18.84-32.56,52.14-52,89.07-52s70.23,19.44,89.07,52a8,8,0,1,0,13.85-8ZM72,96a56,56,0,1,1,56,56A56.06,56.06,0,0,1,72,96Z"></path>
	</symbol>
  </defs>
</svg>
